inDegrees=no
num_controls=7
num_derivatives=13
num_iterations=115
num_multipliers=7
num_parameters=0
num_slacks=7
num_states=26
objective=5.930140
objective_accelerations=0.903295
objective_balance=0.051587
objective_effort=0.284901
objective_height=4.556259
objective_ligament=0.134098
solver_duration=1222.153967
status=Solve_Succeeded
success=true
DataType=double
version=3
OpenSimVersion=4.4-2022-07-23-0e9fedc
endheader
time	/jointset/ground_pelvis/pelvis_tilt/value	/jointset/ground_pelvis/pelvis_tx/value	/jointset/ground_pelvis/pelvis_ty/value	/jointset/hip_l/hip_flexion_l/value	/jointset/hip_l/hip_adduction_l/value	/jointset/hip_l/hip_rotation_l/value	/jointset/back/lumbar_extension/value	/jointset/patellofemoral_l/patellar_flexion_l/value	/jointset/knee_l/knee_flexion_l/value	/jointset/knee_l/knee_adduction_l/value	/jointset/knee_l/knee_rotation_l/value	/jointset/ankle_l/ankle_angle_l/value	/jointset/subtalar_l/subtalar_angle_l/value	/jointset/ground_pelvis/pelvis_tilt/speed	/jointset/ground_pelvis/pelvis_tx/speed	/jointset/ground_pelvis/pelvis_ty/speed	/jointset/hip_l/hip_flexion_l/speed	/jointset/hip_l/hip_adduction_l/speed	/jointset/hip_l/hip_rotation_l/speed	/jointset/back/lumbar_extension/speed	/jointset/patellofemoral_l/patellar_flexion_l/speed	/jointset/knee_l/knee_flexion_l/speed	/jointset/knee_l/knee_adduction_l/speed	/jointset/knee_l/knee_rotation_l/speed	/jointset/ankle_l/ankle_angle_l/speed	/jointset/subtalar_l/subtalar_angle_l/speed	/forceset/tau_hip_flexion_l	/forceset/tau_hip_adduction_l	/forceset/tau_hip_rotation_l	/forceset/tau_knee_flexion_l	/forceset/tau_ankle_angle_l	/forceset/tau_subtalar_angle_l	/forceset/tau_lumbar_extension	lambda_cid13_p0	lambda_cid13_p1	lambda_cid13_p2	lambda_cid13_p3	lambda_cid13_p4	lambda_cid13_p5	lambda_cid14_p0	/jointset/ground_pelvis/pelvis_tilt/accel	/jointset/ground_pelvis/pelvis_tx/accel	/jointset/ground_pelvis/pelvis_ty/accel	/jointset/hip_l/hip_flexion_l/accel	/jointset/hip_l/hip_adduction_l/accel	/jointset/hip_l/hip_rotation_l/accel	/jointset/back/lumbar_extension/accel	/jointset/patellofemoral_l/patellar_flexion_l/accel	/jointset/knee_l/knee_flexion_l/accel	/jointset/knee_l/knee_adduction_l/accel	/jointset/knee_l/knee_rotation_l/accel	/jointset/ankle_l/ankle_angle_l/accel	/jointset/subtalar_l/subtalar_angle_l/accel	gamma_cid13_p0	gamma_cid13_p1	gamma_cid13_p2	gamma_cid13_p3	gamma_cid13_p4	gamma_cid13_p5	gamma_cid14_p0
0	-0.04258198442192743	0.07026640851618855	0.8960749484117262	0.1955292361009247	-0.3206871354021327	-0.509388010505632	-0.137903700187828	0.07015350928392501	0.07015350928391206	-0.174532741392192	-0.1425590368380923	-0.06701017130107029	0.005531365851698521	0	0	0	0	0	0	0	0	0	0	0	0	0	0.1071973429201716	-0.1130628032271972	-0.03705467933907418	-0.25312491802965	0.2332879428200626	-0.01692512883826187	-0.04948312647397349	39.37403600448112	-3.300453212693994	4.481580887397028	-19.24590589068053	-515.3916750028488	-82.55542720130282	-40.60098551963051	-3.657425892570919	-1.330406676846495	-0.9048466887283926	12.53221242368159	-1.798641248538244	3.70266659317386	-2.744581565256576	12.37802375254517	12.37802375254435	2.907638928811771	-1.14153263033649	4.378514158055904	0.4098987062019497	1.063057134135423e-08	3.189493426483022e-07	8.115242827729207e-08	3.421440639273292e-08	8.113076193993642e-10	-3.249089429835057e-08	4.468988476358305e-08
0.01	-0.04275540687320954	0.07020162712397719	0.896031176820788	0.1961346189053178	-0.3207750284037538	-0.5091991429535851	-0.1380469273147522	0.07075562226756391	0.07075562226764655	-0.1743911582191857	-0.1426061281286091	-0.06679636792705811	0.005551223783525761	-0.03457129936242023	-0.01282043481847442	-0.008729345013585212	0.1204845740088789	-0.0174942513748393	0.0376198582075955	-0.02837592515522698	0.1198759918056151	0.1198759918056101	0.02818468993261482	-0.009329970549461362	0.04266031308043496	0.004009663142372112	0.1055680024721018	-0.1202859032019682	-0.03693210794770629	-0.2534850361059688	0.2310466335815836	-0.009551794667488742	-0.04769884400615886	38.90061525309463	-6.184607078132125	4.672747193958088	-20.35983037511616	-516.4411688799183	-88.77589945129832	-40.61277624258997	-3.340017282447414	-1.237478498951354	-0.8532322692809552	11.71776745264418	-1.712232592690291	3.768600505781315	-2.84367295523927	11.71038721655721	11.71038721655698	2.754157409012654	-0.8154949608026626	4.19474766875522	0.4021513476592442	-2.629415108487482e-08	3.563943396374311e-07	2.25451952923086e-07	8.451959203542686e-08	-3.038250869367931e-07	-1.521251224021132e-07	4.841216598474527e-08
0.02	-0.04327114938301094	0.07001271806065901	0.8959008610073922	0.1979270849624092	-0.3210353470212674	-0.5086386858052084	-0.1384658286861488	0.07254009523378088	0.07254009523377782	-0.1739716734700002	-0.1427438722631325	-0.06615896986509869	0.005612308592657718	-0.06846401169956708	-0.0248255342213615	-0.0173088444915312	0.2374166505438607	-0.03448512317901806	0.07431791926435463	-0.05513484889372147	0.2364719964907298	0.2364719964907251	0.0555803152062768	-0.01813056884100926	0.08471893758958722	0.00824537546092121	0.1039386620239805	-0.1275090031767418	-0.03680953655754782	-0.2538451541821399	0.2288053243431099	-0.002178460496700992	-0.04591456153837152	38.50908592074635	-9.079939308115057	4.86208623776873	-21.70446730908708	-516.3209855129945	-94.76099451536398	-40.64736172772545	-3.521708487515772	-1.167339593729403	-0.874877581600539	11.8217129289022	-1.697965334406106	3.518307163006575	-2.421181281909746	11.72202632844516	11.72202632844537	2.74982599702127	-1.03565817875389	4.258176443798956	0.455108541437157	-6.321887351110388e-08	3.9383933662656e-07	3.697514775688799e-07	1.348247776781208e-07	-6.084614814929856e-07	-2.717593505058759e-07	5.213444720590749e-08
0.03	-0.04412223228969552	0.06970671718551313	0.8956850988470751	0.2008729771612383	-0.3214628400950872	-0.5077178661173286	-0.1391440472579797	0.07547519102683037	0.07547519102684086	-0.1732817854505856	-0.1429691835010179	-0.06510502246896233	0.005716575662127525	-0.10155867435306	-0.03634809896855188	-0.02584875913284167	0.3512458771502579	-0.05090414171694591	0.1096839390776697	-0.08028453910096169	0.350009192579287	0.3500091925792808	0.08228681616825409	-0.02684636129613927	0.1258386185173098	0.01260142977629169	0.097896473272053	-0.1190935398599297	-0.03540621719824462	-0.2452163572385725	0.2182797930481864	-0.003317824220696777	-0.04119400063628038	35.11918794804294	-8.187645016246055	4.943797787584401	-19.32362479033698	-516.0419923403655	-92.14885424578381	-40.70318784307632	-3.174268268004235	-1.140706472100917	-0.8444470626750082	11.0861230340199	-1.59758152931024	3.52139568334802	-2.528213933441757	11.08886037677268	11.0888603767726	2.614605555432179	-0.7767093113067826	4.00409274307694	0.4247569274033957	-8.522039030347362e-08	3.940591756570033e-07	4.663292122468826e-07	1.60230504076147e-07	-8.04931628190927e-07	-3.657156323555742e-07	5.348773790430872e-08
0.04	-0.04529844644567765	0.06928629235151711	0.8953837578088893	0.2049416807275949	-0.3220512656374461	-0.5064482569727128	-0.1400670329405514	0.07952951760627651	0.07952951760627489	-0.172328123739563	-0.1432790865699632	-0.06364683249838557	0.005864183884914289	-0.1334902615559564	-0.04771032599139289	-0.03442462006527976	0.46197892405715	-0.06667161688782626	0.1440758106051368	-0.1040882710405567	0.4603181537763079	0.4603181537763045	0.108335053516061	-0.03504893504784096	0.1655674524777412	0.01691360612430734	0.09185428451966852	-0.1106780765431685	-0.03400289783889623	-0.2365875602953179	0.2077542617531157	-0.004457187944827975	-0.03647343973440972	31.80464240519148	-7.30208716318707	5.019208620500311	-17.15388147691282	-514.693078498958	-89.31256675154917	-40.77827151107402	-3.289093397396058	-1.135272048859882	-0.8820668398260531	11.2024769890012	-1.567656660996601	3.323477505836951	-2.151989628380408	11.07637935013798	11.07637935013903	2.618173274187211	-0.9330144380683218	3.980007050340343	0.4463329479659942	-1.069142121343205e-07	3.935114856573705e-07	5.619229924925599e-07	1.851228395619121e-07	-9.991715429742653e-07	-4.591424720144671e-07	5.47921834372922e-08
0.05	-0.04678922752595675	0.068753423166136	0.894996126272955	0.2101034941560061	-0.3227942394736408	-0.5048406088736856	-0.1412205084917557	0.08467191818543676	0.08467191818545032	-0.1711173799361783	-0.1436695402465439	-0.06179750145415028	0.006055007337955757	-0.164495253570719	-0.05879571963088751	-0.04312948583867812	0.5698432108834837	-0.08181222643387212	0.1772740243938107	-0.126387608618114	0.5676199149966317	0.5676199149966179	0.1336789420730776	-0.04294456475663946	0.2041074838027534	0.02126902393814533	0.08704195897590816	-0.1069841876174782	-0.03298532300689335	-0.2318362505919981	0.2006947487346558	-0.00304783511220001	-0.03265122046735212	29.68682165688296	-7.58747512365596	5.115103841965019	-16.18843315790691	-513.6010549787022	-89.07969759310816	-40.8701068205896	-2.980598961555548	-1.08496707859294	-0.8690676575710631	10.49730354356738	-1.470765486970804	3.290952883521318	-2.236021234157119	10.47575648024891	10.47575648024676	2.472421829775342	-0.7031886048691119	3.762330772300946	0.4327093422943348	-1.272649254686632e-07	2.597316998202515e-07	6.07093630522044e-07	1.824559281268638e-07	-1.111766954887485e-06	-5.249228313831284e-07	3.627213861016178e-08
0.06	-0.04858493789800938	0.06811174123293921	0.8945205718369917	0.2163277302554661	-0.3236853198824051	-0.5029063867231285	-0.1425904005010879	0.09087107277125604	0.09087107277125317	-0.1696572122105165	-0.1441360204937187	-0.05956850417692151	0.006289897597975748	-0.1944761199069617	-0.06947287555453185	-0.0520092000710427	0.6744634582745429	-0.09629293140240947	0.2093906209080287	-0.1473715626641553	0.6716689551077276	0.671668955107698	0.1582198379627452	-0.05025424916878403	0.241500699076528	0.0257269675200427	0.0822296334318173	-0.1032902986917851	-0.03196774817505108	-0.2270849408888132	0.1936352357161419	-0.001638482279596453	-0.02882900120052508	27.63612391600156	-7.880446079008788	5.207445785673478	-15.41214117663689	-511.5566578323899	-88.64948886923897	-40.9758044433917	-3.084268261691689	-1.053624505690151	-0.9170365316192945	10.55366910194631	-1.435675745494895	3.107154050945741	-1.888912922076945	10.42583512829248	10.42583512829246	2.457574740717438	-0.8158253787376301	3.750643840092454	0.4668381015776806	-1.47559086866311e-07	1.203421415268172e-07	6.501411888792675e-07	1.786286273477812e-07	-1.220924703521964e-06	-5.8953912842378e-07	1.691737839944761e-08
0.07000000000000001	-0.05067615638519574	0.0673652424204997	0.8939550355279972	0.2235837039169218	-0.3247180031064408	-0.5006577732246184	-0.1441628037915115	0.09809589605205439	0.09809589605206774	-0.167955484070808	-0.1446743541753721	-0.05697091182634185	0.006570013351109586	-0.2235910096465232	-0.07976353930412612	-0.06114412591797907	0.7762024014726511	-0.1101248366668112	0.2401552538690735	-0.1669056695273581	0.7727576980576973	0.7727576980576967	0.1819938203768232	-0.05729930407235559	0.2778192118992869	0.03031937776019401	0.07702375913367665	-0.09851391402705605	-0.03087896910186474	-0.2223554359723587	0.1864261416639597	-0.0007521940440930157	-0.02478636238683343	25.49724034708377	-7.949365322499863	5.285262295052291	-14.37970201082143	-509.7632917557778	-87.69242308936953	-41.09216381946693	-2.798603655338976	-1.007249486723314	-0.9188757478020038	9.904667168073281	-1.339223976263142	3.034494238399071	-1.955145683631488	9.869690280279176	9.869690280283578	2.31761917566235	-0.6317728876243314	3.542683103236962	0.4588287159528751	-1.64063480926833e-07	-6.122554155358471e-08	6.658876202363467e-07	1.591582454913005e-07	-1.2586650283404e-06	-6.352465759206834e-07	-9.227102823883904e-09
